<svg xmlns="http://www.w3.org/2000/svg" style="display: none;"><symbol id="cooking-pot-with-cover" viewBox="0 0 380.721 380.722"><title>cooking-pot-with-cover</title><path d="M309.126,116.036c-7.238,0-27.583,0-53.655,0c-6.785-5.676-16.173-10.352-27.35-13.524 c0.139-6.57-0.791-17.811-8.029-26.247c-5.844-6.866-14.325-10.34-25.166-10.34c-10.857,0-19.293,3.497-25.044,10.375 c-6.768,8.116-7.709,18.787-7.528,25.485c-12.293,3.178-22.569,8.151-29.86,14.25c-33.305,0-60.005,0-67.139,0 c-21.373,0-26.345,18.171-26.345,26.88c9.672,0,293.912,0,300.929,0C339.939,132.384,335.165,116.036,309.126,116.036z M193.985,97.917c-5.966,0-11.676,0.476-17.235,1.202c0.156-4.45,1.144-9.922,4.234-13.611c2.917-3.462,7.482-5.164,13.942-5.164 c6.495,0,11.143,1.725,14.187,5.234c3.23,3.771,4.346,9.353,4.59,13.838C207.417,98.486,200.829,97.917,193.985,97.917z"/><path d="M352.406,179.939c-3.427,1.214-7.656,4.816-10.921,7.982c0.848-8.162,1.405-14.802,1.73-19.095h5.646v-14.773H30.127 v14.762h8.186c0.15,4.369,0.447,11.183,1.011,19.525c-3.288-3.189-7.57-6.867-11.021-8.069c-6.507-2.306-28.303,0-28.303,0v8.807 c0,0,21.414-0.75,26.02,1.928c4.607,2.672,9.58,25.311,13.408,25.311c0.633,0,1.499,0,2.451,0 c3.881,33.475,9.957,72.988,26.021,87.303H55.764v11.178h266.213v-11.178h-13.942c15.673-14.36,24.794-54.072,29.859-87.615 c1.349,0,2.568,0,3.394,0c3.834,0,8.807-22.634,13.407-25.324c4.612-2.689,26.026-1.935,26.026-1.935v-8.807 C380.721,179.939,358.913,177.632,352.406,179.939z M78.705,279.941c-5.966-10.945-12.234-26.445-14.436-43.513 c-0.593-4.612-0.831-8.075-0.854-12.583c0.012-4.066,0.082-8.04,0.296-11.921c0.604-7.703,1.51-14.895,2.905-20.995 c1.284-6.077,2.876-11.073,4.224-14.477c1.295-3.439,2.341-5.281,2.341-5.281s0.872,8.36,1.824,20.344 c0.546,6.001,1.069,12.949,1.615,20.386c0.272,3.694,0.546,7.528,0.831,11.409c0.279,3.438,0.586,8.052,1.11,11.433 c0.418,3.637,1.034,7.575,1.69,11.293c0.703,3.788,1.365,7.506,2.033,11.119c1.487,7.285,2.881,14.105,4.055,19.938 c2.573,11.747,3.974,20.066,3.974,20.066S84.578,290.896,78.705,279.941z"/></symbol><symbol id="squid" viewBox="0 0 512 512"><title>squid</title><g> <g> <path d="M499.81,21.348c-1.343-3.916-4.226-7.051-7.888-8.746c-0.49-0.227-1.16-0.49-1.549-0.619 C411.15-14.425,284.591,9.36,219.607,25.632c-25.394,6.359-40.269,32.417-32.738,57.439c6.615,21.976,16.065,43.901,28.131,65.323 c-5.422,5.422-119.109,119.11-124.519,124.519c-5.86,5.86-15.345,5.861-21.206,0c-5.861-5.861-5.861-15.345,0-21.206L90.482,230.5 c5.856-5.856,5.856-15.35,0-21.206c-5.855-5.856-15.35-5.856-21.206,0L48.069,230.5c-17.54,17.54-17.54,46.079,0,63.62 c8.497,8.497,19.794,13.176,31.81,13.176c12.016,0,23.313-4.68,31.81-13.176l40.594-40.594l21.206,21.206L55.568,392.654 c-5.846,5.847-15.359,5.847-21.206,0c-5.847-5.847-5.847-15.36,0-21.206l13.709-13.709c5.856-5.856,5.856-15.35,0-21.206 c-5.855-5.855-15.35-5.855-21.206,0l-13.71,13.71c-17.538,17.539-17.539,46.079,0,63.619c8.769,8.77,20.29,13.155,31.81,13.155 c11.52,0,23.04-4.385,31.81-13.155l117.923-117.923l21.206,21.206L97.98,435.066c-17.581,17.58-17.582,46.037,0,63.62 c17.553,17.553,46.093,17.525,63.619,0l13.709-13.709c5.856-5.856,5.856-15.35,0-21.206c-5.855-5.856-15.349-5.856-21.206,0 l-13.709,13.709c-5.861,5.861-15.345,5.861-21.206,0c-5.86-5.86-5.861-15.345,0-21.206l117.923-117.923l21.206,21.206 l-40.593,40.593c-17.54,17.54-17.54,46.079,0,63.62c17.539,17.538,46.079,17.539,63.619,0l21.206-21.206 c5.856-5.856,5.856-15.35,0-21.206c-5.855-5.856-15.35-5.856-21.206,0l-21.206,21.206c-5.847,5.846-15.36,5.847-21.206,0 c-5.846-5.846-5.846-15.36,0-21.206c5.429-5.429,119.106-119.106,124.519-124.519c21.422,12.067,43.347,21.517,65.323,28.132 c25.023,7.532,51.079-7.338,57.439-32.738C505.427,215.482,525.554,96.209,499.81,21.348z M226.892,54.725 c29.851-7.475,85.705-19.809,142.181-23.645C330.83,47.441,290.2,73.196,262.543,100.851l-25.448,25.448 c-9.069-17.126-16.281-34.507-21.508-51.873C212.992,65.802,218.133,56.917,226.892,54.725z M279.522,338.351l-31.81-31.81 l-74.222-74.223l110.26-110.261c44.926-44.926,130.51-87.523,188.621-82.589c4.936,58.125-37.663,143.696-82.589,188.621 L279.522,338.351z M457.116,284.949c-2.183,8.719-11.042,13.911-19.702,11.304c-17.366-5.226-34.747-12.439-51.873-21.508 l25.448-25.448c25.82-25.82,51.48-64.665,68.64-103.91c0.376-0.861,0.754-1.737,1.131-2.62 C476.924,199.244,464.59,255.098,457.116,284.949z"/> </g> </g><g> <g> <circle cx="237.104" cy="232.316" r="14.995"/> </g> </g><g> <g> <circle cx="279.521" cy="274.733" r="14.995"/> </g> </g></symbol><symbol id="shopping-cart" viewBox="0 0 486.569 486.569"><title>shopping-cart</title><path d="M146.069,320.369h268.1c30.4,0,55.2-24.8,55.2-55.2v-112.8c0-0.1,0-0.3,0-0.4c0-0.3,0-0.5,0-0.8c0-0.2,0-0.4-0.1-0.6 c0-0.2-0.1-0.5-0.1-0.7s-0.1-0.4-0.1-0.6c-0.1-0.2-0.1-0.4-0.2-0.7c-0.1-0.2-0.1-0.4-0.2-0.6c-0.1-0.2-0.1-0.4-0.2-0.6 c-0.1-0.2-0.2-0.4-0.3-0.7c-0.1-0.2-0.2-0.4-0.3-0.5c-0.1-0.2-0.2-0.4-0.3-0.6c-0.1-0.2-0.2-0.3-0.3-0.5c-0.1-0.2-0.3-0.4-0.4-0.6 c-0.1-0.2-0.2-0.3-0.4-0.5c-0.1-0.2-0.3-0.3-0.4-0.5s-0.3-0.3-0.4-0.5s-0.3-0.3-0.4-0.4c-0.2-0.2-0.3-0.3-0.5-0.5 c-0.2-0.1-0.3-0.3-0.5-0.4c-0.2-0.1-0.4-0.3-0.6-0.4c-0.2-0.1-0.3-0.2-0.5-0.3s-0.4-0.2-0.6-0.4c-0.2-0.1-0.4-0.2-0.6-0.3 s-0.4-0.2-0.6-0.3s-0.4-0.2-0.6-0.3s-0.4-0.1-0.6-0.2c-0.2-0.1-0.5-0.2-0.7-0.2s-0.4-0.1-0.5-0.1c-0.3-0.1-0.5-0.1-0.8-0.1 c-0.1,0-0.2-0.1-0.4-0.1l-339.8-46.9v-47.4c0-0.5,0-1-0.1-1.4c0-0.1,0-0.2-0.1-0.4c0-0.3-0.1-0.6-0.1-0.9c-0.1-0.3-0.1-0.5-0.2-0.8 c0-0.2-0.1-0.3-0.1-0.5c-0.1-0.3-0.2-0.6-0.3-0.9c0-0.1-0.1-0.3-0.1-0.4c-0.1-0.3-0.2-0.5-0.4-0.8c-0.1-0.1-0.1-0.3-0.2-0.4 c-0.1-0.2-0.2-0.4-0.4-0.6c-0.1-0.2-0.2-0.3-0.3-0.5s-0.2-0.3-0.3-0.5s-0.3-0.4-0.4-0.6c-0.1-0.1-0.2-0.2-0.3-0.3 c-0.2-0.2-0.4-0.4-0.6-0.6c-0.1-0.1-0.2-0.2-0.3-0.3c-0.2-0.2-0.4-0.4-0.7-0.6c-0.1-0.1-0.3-0.2-0.4-0.3c-0.2-0.2-0.4-0.3-0.6-0.5 c-0.3-0.2-0.6-0.4-0.8-0.5c-0.1-0.1-0.2-0.1-0.3-0.2c-0.4-0.2-0.9-0.4-1.3-0.6l-73.7-31c-6.9-2.9-14.8,0.3-17.7,7.2 s0.3,14.8,7.2,17.7l65.4,27.6v61.2v9.7v74.4v66.5v84c0,28,21,51.2,48.1,54.7c-4.9,8.2-7.8,17.8-7.8,28c0,30.1,24.5,54.5,54.5,54.5 s54.5-24.5,54.5-54.5c0-10-2.7-19.5-7.5-27.5h121.4c-4.8,8.1-7.5,17.5-7.5,27.5c0,30.1,24.5,54.5,54.5,54.5s54.5-24.5,54.5-54.5 s-24.5-54.5-54.5-54.5h-255c-15.6,0-28.2-12.7-28.2-28.2v-36.6C126.069,317.569,135.769,320.369,146.069,320.369z M213.269,431.969 c0,15.2-12.4,27.5-27.5,27.5s-27.5-12.4-27.5-27.5s12.4-27.5,27.5-27.5S213.269,416.769,213.269,431.969z M428.669,431.969 c0,15.2-12.4,27.5-27.5,27.5s-27.5-12.4-27.5-27.5s12.4-27.5,27.5-27.5S428.669,416.769,428.669,431.969z M414.169,293.369h-268.1 c-15.6,0-28.2-12.7-28.2-28.2v-66.5v-74.4v-5l324.5,44.7v101.1C442.369,280.769,429.669,293.369,414.169,293.369z"/></symbol><symbol id="magnifying-glass" viewBox="0 0 512 512"><title>magnifying-glass</title><path d="M495,466.2L377.2,348.4c29.2-35.6,46.8-81.2,46.8-130.9C424,103.5,331.5,11,217.5,11C103.4,11,11,103.5,11,217.5 S103.4,424,217.5,424c49.7,0,95.2-17.5,130.8-46.7L466.1,495c8,8,20.9,8,28.9,0C503,487.1,503,474.1,495,466.2z M217.5,382.9 C126.2,382.9,52,308.7,52,217.5S126.2,52,217.5,52C308.7,52,383,126.3,383,217.5S308.7,382.9,217.5,382.9z"/></symbol><symbol id="star" viewBox="0 0 487.222 487.222"><title>star</title><path d="M486.554,186.811c-1.6-4.9-5.8-8.4-10.9-9.2l-152-21.6l-68.4-137.5c-2.3-4.6-7-7.5-12.1-7.5l0,0c-5.1,0-9.8,2.9-12.1,7.6 l-67.5,137.9l-152,22.6c-5.1,0.8-9.3,4.3-10.9,9.2s-0.2,10.3,3.5,13.8l110.3,106.9l-25.5,151.4c-0.9,5.1,1.2,10.2,5.4,13.2 c2.3,1.7,5.1,2.6,7.9,2.6c2.2,0,4.3-0.5,6.3-1.6l135.7-71.9l136.1,71.1c2,1,4.1,1.5,6.2,1.5l0,0c7.4,0,13.5-6.1,13.5-13.5 c0-1.1-0.1-2.1-0.4-3.1l-26.3-150.5l109.6-107.5C486.854,197.111,488.154,191.711,486.554,186.811z M349.554,293.911 c-3.2,3.1-4.6,7.6-3.8,12l22.9,131.3l-118.2-61.7c-3.9-2.1-8.6-2-12.6,0l-117.8,62.4l22.1-131.5c0.7-4.4-0.7-8.8-3.9-11.9 l-95.6-92.8l131.9-19.6c4.4-0.7,8.2-3.4,10.1-7.4l58.6-119.7l59.4,119.4c2,4,5.8,6.7,10.2,7.4l132,18.8L349.554,293.911z"/></symbol><symbol id="tongue" viewBox="0 0 512 512"><title>tongue</title><g> <g> <path d="M512,256C512,114.848,397.152,0,256,0S0,114.848,0,256s114.848,256,256,256c47.648,0,93.376-13.44,133.344-38.08 c8.352,3.84,17.408,6.08,26.656,6.08c16.8,0,33.312-6.848,45.248-18.784c12.16-12.16,18.848-28.224,18.848-45.216 c0-9.408-2.24-18.4-6.112-26.72C498.56,349.28,512,303.584,512,256z M438.624,438.592c-11.968,11.936-33.248,11.936-45.216,0 l-26.496-26.496c17.44-12.384,32.864-27.488,45.376-45.024l26.336,26.336c6.112,6.08,9.472,14.112,9.472,22.592 C448.096,424.48,444.704,432.512,438.624,438.592z M452.64,362.176l-23.456-23.488c4.64-9.664,8.544-19.808,11.52-30.368 c2.4-8.544-2.56-17.344-11.072-19.744c-8.416-2.368-17.344,2.56-19.744,11.072C390.624,368.16,327.328,416,256,416 s-134.624-47.84-153.888-116.352c-2.368-8.512-11.296-13.44-19.744-11.072c-8.48,2.432-13.44,11.232-11.04,19.776 C94.464,390.56,170.4,448,256,448c29.216,0,57.088-7.136,82.336-19.2l23.872,23.872C329.792,470.272,293.632,480,256,480 C132.48,480,32,379.488,32,256S132.48,32,256,32s224,100.512,224,224C480,293.632,470.272,329.76,452.64,362.176z"/> </g> </g><g> <g> <path d="M352,128c-35.296,0-64,28.704-64,64c0,8.832,7.168,16,16,16c8.832,0,16-7.168,16-16c0-17.664,14.368-32,32-32 c17.632,0,32,14.336,32,32c0,8.832,7.168,16,16,16c8.832,0,16-7.168,16-16C416,156.704,387.296,128,352,128z"/> </g> </g><g> <g> <path d="M160,128c-35.296,0-64,28.704-64,64c0,8.832,7.168,16,16,16c8.832,0,16-7.168,16-16c0-17.664,14.368-32,32-32 s32,14.336,32,32c0,8.832,7.168,16,16,16c8.832,0,16-7.168,16-16C224,156.704,195.296,128,160,128z"/> </g> </g></symbol><symbol id="alarm-clock" viewBox="0 0 58.153 58.153"><title>alarm-clock</title><path d="M40.076,29.153h-7.142c-0.364-1.399-1.459-2.494-2.858-2.858V16.153c0-0.553-0.448-1-1-1s-1,0.447-1,1v10.142 c-1.72,0.447-3,1.999-3,3.858c0,2.206,1.794,4,4,4c1.858,0,3.411-1.28,3.858-3h7.142c0.552,0,1-0.447,1-1 S40.629,29.153,40.076,29.153z M29.076,32.153c-1.103,0-2-0.897-2-2s0.897-2,2-2s2,0.897,2,2S30.179,32.153,29.076,32.153z"/><path d="M50.188,9.764l4.096,4.096c0.188,0.188,0.442,0.293,0.707,0.293s0.52-0.105,0.707-0.293c3.167-3.166,3.167-8.319,0-11.485 c-3.166-3.166-8.319-3.166-11.485,0c-0.188,0.188-0.293,0.441-0.293,0.707s0.105,0.52,0.293,0.707l4.561,4.561l-1.699,1.699 c-4.78-4.284-11.089-6.896-17.998-6.896s-13.218,2.612-17.998,6.896L9.379,8.35l4.561-4.561c0.188-0.188,0.293-0.441,0.293-0.707 s-0.105-0.52-0.293-0.707c-3.166-3.166-8.319-3.166-11.485,0c-3.167,3.166-3.167,8.319,0,11.485 c0.188,0.188,0.442,0.293,0.707,0.293s0.52-0.105,0.707-0.293l4.096-4.096l1.676,1.676c-4.679,4.857-7.565,11.453-7.565,18.713 c0,9.898,5.357,18.564,13.321,23.265l-3.028,3.028c-0.391,0.391-0.391,1.023,0,1.414c0.195,0.195,0.451,0.293,0.707,0.293 s0.512-0.098,0.707-0.293l3.45-3.45c3.578,1.754,7.597,2.743,11.843,2.743s8.265-0.989,11.843-2.743l3.45,3.45 c0.195,0.195,0.451,0.293,0.707,0.293s0.512-0.098,0.707-0.293c0.391-0.391,0.391-1.023,0-1.414l-3.028-3.028 c7.964-4.701,13.321-13.367,13.321-23.265c0-7.26-2.886-13.856-7.565-18.713L50.188,9.764z M54.283,3.789 c2.146,2.146,2.362,5.502,0.649,7.893l-8.541-8.542C48.78,1.427,52.137,1.642,54.283,3.789z M3.22,11.681 C1.507,9.291,1.723,5.935,3.869,3.789c2.146-2.146,5.503-2.361,7.892-0.649L3.22,11.681z M29.076,55.153c-13.785,0-25-11.215-25-25 s11.215-25,25-25s25,11.215,25,25S42.862,55.153,29.076,55.153z"/><path d="M48.958,18.61c-2.01-3.449-4.89-6.328-8.338-8.338c-0.016-0.011-0.026-0.028-0.043-0.038 c-0.018-0.01-0.037-0.01-0.055-0.019c-3.373-1.944-7.28-3.063-11.445-3.063c-4.165,0-8.072,1.118-11.445,3.063 c-0.018,0.009-0.038,0.008-0.055,0.019c-0.017,0.01-0.026,0.027-0.043,0.038c-3.449,2.01-6.328,4.889-8.338,8.338 c-0.011,0.017-0.028,0.026-0.038,0.043c-0.01,0.017-0.01,0.037-0.018,0.055c-1.944,3.374-3.063,7.28-3.063,11.445 s1.119,8.072,3.063,11.445c0.009,0.018,0.008,0.037,0.018,0.055c0.014,0.025,0.035,0.043,0.051,0.066 c2.01,3.438,4.884,6.309,8.325,8.315c0.016,0.011,0.026,0.028,0.043,0.038c0.026,0.015,0.054,0.021,0.08,0.033 c3.368,1.935,7.265,3.048,11.42,3.048s8.052-1.113,11.42-3.048c0.026-0.012,0.054-0.018,0.08-0.033 c0.017-0.01,0.026-0.027,0.043-0.038c3.441-2.006,6.315-4.876,8.325-8.315c0.016-0.023,0.037-0.041,0.051-0.066 c0.01-0.017,0.01-0.037,0.018-0.055c1.944-3.374,3.063-7.28,3.063-11.445s-1.119-8.072-3.063-11.445 c-0.009-0.018-0.008-0.037-0.018-0.055C48.985,18.636,48.968,18.626,48.958,18.61z M40.419,47.799l-0.477-0.826 c-0.277-0.478-0.888-0.643-1.366-0.366c-0.478,0.276-0.642,0.888-0.366,1.366l0.479,0.829c-2.603,1.347-5.52,2.153-8.612,2.3 v-0.949c0-0.553-0.448-1-1-1s-1,0.447-1,1v0.949c-3.092-0.146-6.009-0.953-8.612-2.3l0.479-0.829 c0.276-0.479,0.112-1.09-0.366-1.366c-0.481-0.276-1.09-0.111-1.366,0.366l-0.477,0.826c-2.525-1.628-4.675-3.779-6.303-6.303 l0.826-0.477c0.478-0.276,0.642-0.888,0.366-1.366c-0.277-0.478-0.887-0.645-1.366-0.366l-0.829,0.479 c-1.347-2.603-2.153-5.521-2.3-8.612h0.949c0.552,0,1-0.447,1-1s-0.448-1-1-1H8.127c0.147-3.092,0.953-6.01,2.3-8.612l0.829,0.479 c0.158,0.091,0.33,0.134,0.499,0.134c0.346,0,0.682-0.18,0.867-0.5c0.276-0.479,0.112-1.09-0.366-1.366L11.43,18.81 c1.628-2.524,3.779-4.675,6.303-6.303l0.477,0.826c0.186,0.32,0.521,0.5,0.867,0.5c0.169,0,0.341-0.043,0.499-0.134 c0.478-0.276,0.642-0.888,0.366-1.366l-0.479-0.829c2.603-1.347,5.52-2.153,8.612-2.3v0.949c0,0.553,0.448,1,1,1s1-0.447,1-1V9.204 c3.092,0.146,6.009,0.953,8.612,2.3l-0.479,0.829c-0.276,0.479-0.112,1.09,0.366,1.366c0.158,0.091,0.33,0.134,0.499,0.134 c0.346,0,0.682-0.18,0.867-0.5l0.477-0.826c2.525,1.628,4.675,3.779,6.303,6.303l-0.826,0.477 c-0.478,0.276-0.642,0.888-0.366,1.366c0.186,0.32,0.521,0.5,0.867,0.5c0.169,0,0.341-0.043,0.499-0.134l0.829-0.479 c1.347,2.603,2.153,5.521,2.3,8.612h-0.949c-0.552,0-1,0.447-1,1s0.448,1,1,1h0.949c-0.147,3.092-0.953,6.01-2.3,8.612 l-0.829-0.479c-0.48-0.278-1.09-0.111-1.366,0.366c-0.276,0.479-0.112,1.09,0.366,1.366l0.826,0.477 C45.094,44.02,42.944,46.17,40.419,47.799z"/></symbol></svg>